<?xml version="1.0" encoding="UTF-8"?>
<svg width="258px" height="212px" viewBox="0 0 258 212" version="1.1" xmlns="http://www.w3.org/2000/svg" xmlns:xlink="http://www.w3.org/1999/xlink">
    <!-- Generator: Sketch 51.2 (57519) - http://www.bohemiancoding.com/sketch -->
    <title>Wallet Error</title>
    <desc>Created with Sketch.</desc>
    <defs>
        <linearGradient x1="50.0024057%" y1="112.025597%" x2="50.0024057%" y2="-12.0251155%" id="linearGradient-1">
            <stop stop-color="#F9A64D" offset="0%"></stop>
            <stop stop-color="#F89F4D" offset="8.54%"></stop>
            <stop stop-color="#F68C4D" offset="37.79%"></stop>
            <stop stop-color="#F4814D" offset="67.91%"></stop>
            <stop stop-color="#F47D4D" offset="100%"></stop>
        </linearGradient>
        <linearGradient x1="49.9996623%" y1="103.331645%" x2="49.9996623%" y2="-3.3316452%" id="linearGradient-2">
            <stop stop-color="#F9A64D" offset="0%"></stop>
            <stop stop-color="#F89F4D" offset="8.54%"></stop>
            <stop stop-color="#F68C4D" offset="37.79%"></stop>
            <stop stop-color="#F4814D" offset="67.91%"></stop>
            <stop stop-color="#F47D4D" offset="100%"></stop>
        </linearGradient>
    </defs>
    <g id="Page-1" stroke="none" stroke-width="1" fill="none" fill-rule="evenodd">
        <g id="wallet-error" transform="translate(5.000000, 5.000000)">
            <g id="Group" transform="translate(10.000000, 7.000000)" fill="#FEF1E4" fill-rule="nonzero" stroke="#FEF1E4" stroke-width="10">
                <circle id="Oval" cx="148.738" cy="78.296" r="10.391"></circle>
                <path d="M216.057,54.409 L216.057,0.878 L22.332,0.878 C10.134,0.878 0.247,11.154 0.247,23.831 L0.247,127.994 C0.247,140.67 10.135,150.946 22.332,150.946 L216.057,150.946 L216.057,102.183 L149.008,102.183 C135.817,102.183 125.121,91.488 125.121,78.296 C125.121,65.104 135.816,54.409 149.008,54.409 L145.422,54.409 L229.856,54.409 C233.875,54.409 237.132,57.309 237.132,60.887 L237.132,95.704 C237.132,99.282 233.874,102.183 229.856,102.183 L145.422,102.183" id="Shape"></path>
            </g>
            <g id="Group" fill="#FFFFFF" fill-rule="nonzero">
                <circle id="Oval" cx="148.563" cy="78.154" r="10.392"></circle>
                <path d="M215.881,54.268 L215.881,0.737 L22.157,0.737 C9.959,0.737 0.072,11.013 0.072,23.69 L0.072,127.852 C0.072,140.528 9.96,150.804 22.157,150.804 L215.881,150.804 L215.881,102.041" id="Shape"></path>
                <path d="M236.957,95.38 C236.957,98.761 234.217,101.501 230.836,101.501 L207.721,101.501 C204.34,101.501 201.6,98.761 201.6,95.38 L201.6,61.603 C201.6,58.223 204.34,55.482 207.721,55.482 L230.836,55.482 C234.217,55.482 236.957,58.222 236.957,61.603 L236.957,95.38 Z" id="Shape"></path>
            </g>
            <g id="Group">
                <circle id="Oval" stroke="url(#linearGradient-1)" stroke-width="5" cx="148.563" cy="78.154" r="10.392"></circle>
                <path d="M215.881,54.268 L215.881,0.737 L22.157,0.737 C9.959,0.737 0.072,11.013 0.072,23.69 L0.072,127.852 C0.072,140.528 9.96,150.804 22.157,150.804 L215.881,150.804 L215.881,139.558 L215.881,118.505 L215.881,102.041 L148.834,102.041 C135.641,102.041 124.947,91.346 124.947,78.154 C124.947,64.962 135.64,54.267 148.834,54.267 L145.247,54.267 L229.681,54.267 C233.7,54.267 236.957,57.167 236.957,60.745 L236.957,95.563 C236.957,99.141 233.699,102.041 229.681,102.041 L145.247,102.041" id="Shape" stroke="url(#linearGradient-2)" stroke-width="10"></path>
            </g>
            <circle id="Oval" stroke="#666666" stroke-width="5" fill="#FFFFFF" fill-rule="nonzero" cx="199.644" cy="157.825" r="31.025"></circle>
            <text id="!" fill="#F7931E" transform="translate(197.362461, 169.696953) rotate(-0.048070) translate(-197.362461, -169.696953) " font-family="Calibri-Bold, Calibri" font-size="60.3417" font-weight="bold">
                <tspan x="188.862458" y="178.038152">!</tspan>
            </text>
        </g>
    </g>
</svg>
